<svg width="200" height="200" viewBox="0 0 200 200" fill="none" xmlns="http://www.w3.org/2000/svg">
<path d="M119.5 89L146.5 87" stroke="#EDDDD4" stroke-width="6"/>
<path d="M113 95V108.5L131 155" stroke="#EDDDD4" stroke-width="6"/>
<path d="M87 95V108.5L69 155" stroke="#EDDDD4" stroke-width="6"/>
<circle cx="100" cy="100" r="96.5" stroke="#EDDDD4" stroke-width="7"/>
<circle cx="100" cy="50" r="16" stroke="#EDDDD4" stroke-width="6"/>
<circle cx="100" cy="100" r="84" stroke="#EDDDD4" stroke-width="6"/>
<path d="M53 74L100 76.5L147 74" stroke="#EDDDD4" stroke-width="6"/>
<path d="M54 87C50.134 87 47 84.0899 47 80.5C47 76.9101 50.134 74 54 74" stroke="#EDDDD4" stroke-width="6"/>
<path d="M146 87C149.866 87 153 84.0899 153 80.5C153 76.9101 149.866 74 146 74" stroke="#EDDDD4" stroke-width="6"/>
<path d="M113 95.5C113 91.9101 116.134 89 120 89" stroke="#EDDDD4" stroke-width="6"/>
<path d="M87 95.5C87 91.9101 83.866 89 80 89" stroke="#EDDDD4" stroke-width="6"/>
<path d="M80.5 89L53.5 87" stroke="#EDDDD4" stroke-width="6"/>
<path d="M118.5 155.5L100 117L81.5 155.5" stroke="#EDDDD4" stroke-width="6"/>
<mask id="path-14-inside-1_36_15" fill="white">
<path fill-rule="evenodd" clip-rule="evenodd" d="M78.8659 154.036C78.4451 155.856 76.9433 157 75.4578 157C73.7071 157 71.9339 155.412 71.9339 153H66.4619L66.0082 154.242C66.5828 159.028 70.4316 163 75.4578 163C80.9132 163 84.9816 158.32 84.9816 153H79.3713L78.8659 154.036Z"/>
</mask>
<path d="M78.8659 154.036L73.4731 151.406L73.1739 152.02L73.0201 152.685L78.8659 154.036ZM71.9339 153H77.9339V147H71.9339V153ZM66.4619 153V147H62.2659L60.8262 150.941L66.4619 153ZM66.0082 154.242L60.3724 152.183L59.8798 153.532L60.0509 154.957L66.0082 154.242ZM84.9816 153H90.9816V147H84.9816V153ZM79.3713 153V147H75.6221L73.9786 150.37L79.3713 153ZM75.4578 163C79.9862 163 83.7199 159.678 84.7117 155.388L73.0201 152.685C73.1704 152.035 73.9004 151 75.4578 151V163ZM65.9339 153C65.9339 158.419 70.0949 163 75.4578 163V151C77.3193 151 77.9339 152.405 77.9339 153H65.9339ZM66.4619 159H71.9339V147H66.4619V159ZM71.6439 156.301L72.0976 155.059L60.8262 150.941L60.3724 152.183L71.6439 156.301ZM75.4578 157C73.8654 157 72.2273 155.708 71.9654 153.527L60.0509 154.957C60.9382 162.347 66.9979 169 75.4578 169V157ZM78.9816 153C78.9816 155.45 77.173 157 75.4578 157V169C84.6533 169 90.9816 161.191 90.9816 153H78.9816ZM79.3713 159H84.9816V147H79.3713V159ZM73.9786 150.37L73.4731 151.406L84.2587 156.667L84.7641 155.63L73.9786 150.37Z" fill="#EDDDD4" mask="url(#path-14-inside-1_36_15)"/>
<mask id="path-16-inside-2_36_15" fill="white">
<path fill-rule="evenodd" clip-rule="evenodd" d="M120.62 153H115C115 158.31 119.048 163 124.5 163C129.515 163 133.341 159.032 133.923 154.264L133.463 153H128C128 155.422 126.228 157 124.5 157C123.047 157 121.561 155.883 121.127 154.086L120.62 153Z"/>
</mask>
<path d="M120.62 153L126.058 150.464L124.442 147H120.62V153ZM115 153V147H109V153H115ZM133.923 154.264L139.879 154.991L140.053 153.564L139.561 152.212L133.923 154.264ZM133.463 153L139.101 150.948L137.664 147H133.463V153ZM128 153V147H122V153H128ZM121.127 154.086L126.958 152.675L126.818 152.093L126.564 151.551L121.127 154.086ZM120.62 147H115V159H120.62V147ZM109 153C109 161.157 115.286 169 124.5 169V157C122.81 157 121 155.463 121 153H109ZM124.5 169C132.961 169 138.982 162.339 139.879 154.991L127.967 153.537C127.7 155.725 126.068 157 124.5 157V169ZM139.561 152.212L139.101 150.948L127.825 155.052L128.285 156.317L139.561 152.212ZM133.463 147H128V159H133.463V147ZM122 153C122 152.431 122.6 151 124.5 151V163C129.855 163 134 158.414 134 153H122ZM124.5 151C126.075 151 126.804 152.039 126.958 152.675L115.295 155.497C116.318 159.728 120.018 163 124.5 163V151ZM126.564 151.551L126.058 150.464L115.182 155.536L115.689 156.622L126.564 151.551Z" fill="#EDDDD4" mask="url(#path-16-inside-2_36_15)"/>
</svg>
